<svg data-v-d3f97b9e="" xmlns="http://www.w3.org/2000/svg" viewBox="0 0 600 112"><!----><!----><!----><g data-v-d3f97b9e="" id="0965271c-8e90-4c06-947c-b70b5463029c" fill="#FFFFFF" transform="matrix(5.730659401617148,0,0,5.730659401617148,115.13765471692102,-23.03725020836012)"><path d="M15.04 5.04L15.04 5.04Q15.33 5.04 15.49 5.13L15.49 5.13L15.49 5.13Q15.65 5.22 15.65 5.39L15.65 5.39L15.65 5.39Q15.65 5.46 15.61 5.57L15.61 5.57L15.61 5.57Q15.57 5.70 15.49 5.76L15.49 5.76L15.49 5.76Q15.41 5.82 15.26 5.92L15.26 5.92L15.26 5.92Q15.04 6.05 14.90 6.20L14.90 6.20L14.90 6.20Q14.77 6.36 14.67 6.68L14.67 6.68L12.96 12.70L12.96 12.70Q12.91 12.88 12.91 13.05L12.91 13.05L12.91 13.05Q12.91 13.20 12.96 13.31L12.96 13.31L12.96 13.31Q13.01 13.41 13.09 13.55L13.09 13.55L13.09 13.55Q13.15 13.62 13.19 13.70L13.19 13.70L13.19 13.70Q13.23 13.78 13.23 13.86L13.23 13.86L13.23 13.86Q13.23 13.89 13.20 14L13.20 14L13.20 14Q13.15 14.18 12.94 14.27L12.94 14.27L12.94 14.27Q12.74 14.35 12.36 14.35L12.36 14.35L9.07 14.35L9.07 14.35Q8.78 14.35 8.62 14.25L8.62 14.25L8.62 14.25Q8.46 14.15 8.46 13.99L8.46 13.99L8.46 13.99Q8.46 13.90 8.50 13.80L8.50 13.80L8.50 13.80Q8.54 13.71 8.62 13.63L8.62 13.63L8.62 13.63Q8.69 13.55 8.76 13.52L8.76 13.52L8.76 13.52Q8.82 13.48 8.85 13.45L8.85 13.45L8.85 13.45Q9.07 13.33 9.21 13.17L9.21 13.17L9.21 13.17Q9.35 13.02 9.45 12.70L9.45 12.70L10.51 8.92L6.89 13.41L6.89 13.41Q6.44 13.96 6.17 14.16L6.17 14.16L6.17 14.16Q5.89 14.36 5.54 14.36L5.54 14.36L5.54 14.36Q5.21 14.36 5.02 14.15L5.02 14.15L5.02 14.15Q4.83 13.93 4.68 13.41L4.68 13.41L3.36 9.09L2.32 12.71L2.32 12.71Q2.27 12.89 2.27 13.06L2.27 13.06L2.27 13.06Q2.27 13.23 2.32 13.34L2.32 13.34L2.32 13.34Q2.37 13.45 2.46 13.58L2.46 13.58L2.46 13.58Q2.59 13.76 2.59 13.87L2.59 13.87L2.59 13.87Q2.59 13.90 2.56 14.01L2.56 14.01L2.56 14.01Q2.51 14.21 2.31 14.29L2.31 14.29L2.31 14.29Q2.11 14.36 1.72 14.36L1.72 14.36L0.56 14.36L0.56 14.36Q0.27 14.36 0.10 14.27L0.10 14.27L0.10 14.27Q-0.06 14.17-0.06 14L-0.06 14L-0.06 14Q-0.06 13.92-0.01 13.82L-0.01 13.82L-0.01 13.82Q0.04 13.66 0.17 13.58L0.17 13.58L0.17 13.58Q0.29 13.50 0.32 13.48L0.32 13.48L0.32 13.48Q0.55 13.34 0.69 13.20L0.69 13.20L0.69 13.20Q0.83 13.05 0.92 12.71L0.92 12.71L2.63 6.66L2.41 5.92L2.41 5.92Q2.34 5.71 2.34 5.52L2.34 5.52L2.34 5.52Q2.34 5.26 2.50 5.15L2.50 5.15L2.50 5.15Q2.66 5.04 3.00 5.04L3.00 5.04L5.17 5.04L5.17 5.04Q5.59 5.04 5.79 5.22L5.79 5.22L5.79 5.22Q5.99 5.40 6.12 5.85L6.12 5.85L7.52 10.50L11.31 5.78L11.31 5.78Q11.68 5.33 12.03 5.19L12.03 5.19L12.03 5.19Q12.38 5.04 12.95 5.04L12.95 5.04L15.04 5.04ZM19.49 6.96L19.49 6.96Q21.10 6.96 22.06 7.55L22.06 7.55L22.06 7.55Q23.03 8.15 23.03 9.37L23.03 9.37L23.03 9.37Q23.03 9.83 22.86 10.42L22.86 10.42L22.29 12.35L22.29 12.35Q22.27 12.40 22.27 12.49L22.27 12.49L22.27 12.49Q22.27 12.71 22.46 12.71L22.46 12.71L22.46 12.71Q22.62 12.71 22.74 12.57L22.74 12.57L22.74 12.57Q22.86 12.42 22.90 12.42L22.90 12.42L22.90 12.42Q22.97 12.42 23.02 12.52L23.02 12.52L23.02 12.52Q23.07 12.61 23.07 12.74L23.07 12.74L23.07 12.74Q23.09 13.12 22.79 13.51L22.79 13.51L22.79 13.51Q22.48 13.90 21.98 14.15L21.98 14.15L21.98 14.15Q21.48 14.41 20.87 14.41L20.87 14.41L20.87 14.41Q20.15 14.41 19.63 14.14L19.63 14.14L19.63 14.14Q19.11 13.87 18.91 13.36L18.91 13.36L18.91 13.36Q18.49 13.86 17.92 14.13L17.92 14.13L17.92 14.13Q17.35 14.41 16.69 14.41L16.69 14.41L16.69 14.41Q15.95 14.41 15.44 14.12L15.44 14.12L15.44 14.12Q14.94 13.83 14.69 13.38L14.69 13.38L14.69 13.38Q14.45 12.92 14.45 12.42L14.45 12.42L14.45 12.42Q14.45 12.19 14.49 11.98L14.49 11.98L14.49 11.98Q14.71 11.02 15.46 10.53L15.46 10.53L15.46 10.53Q16.21 10.04 17.25 10.04L17.25 10.04L17.25 10.04Q18.41 10.04 19.53 10.40L19.53 10.40L19.88 9.48L19.88 9.48Q20.06 8.89 20.06 8.57L20.06 8.57L20.06 8.57Q20.05 8.23 19.84 8.06L19.84 8.06L19.84 8.06Q19.63 7.90 19.19 7.90L19.19 7.90L19.19 7.90Q19.28 8.12 19.28 8.36L19.28 8.36L19.28 8.36Q19.28 8.88 18.89 9.25L18.89 9.25L18.89 9.25Q18.49 9.63 17.77 9.63L17.77 9.63L17.77 9.63Q17.08 9.63 16.70 9.33L16.70 9.33L16.70 9.33Q16.31 9.03 16.31 8.58L16.31 8.58L16.31 8.58Q16.31 7.88 17.09 7.42L17.09 7.42L17.09 7.42Q17.88 6.96 19.49 6.96L19.49 6.96ZM18.70 11.20L18.70 11.20Q18.31 11.20 18.07 11.50L18.07 11.50L18.07 11.50Q17.82 11.80 17.82 12.15L17.82 12.15L17.82 12.15Q17.82 12.38 17.93 12.52L17.93 12.52L17.93 12.52Q18.03 12.66 18.23 12.66L18.23 12.66L18.23 12.66Q18.41 12.66 18.63 12.51L18.63 12.51L18.63 12.51Q18.84 12.36 18.94 12.07L18.94 12.07L19.24 11.24L19.24 11.24Q19.00 11.20 18.70 11.20L18.70 11.20ZM29.90 7.14L29.90 7.14Q30.17 7.14 30.32 7.25L30.32 7.25L30.32 7.25Q30.46 7.36 30.46 7.56L30.46 7.56L30.46 7.56Q30.46 7.62 30.44 7.76L30.44 7.76L30.44 7.76Q30.25 8.37 29.60 8.37L29.60 8.37L28.78 8.37L27.73 11.83L27.73 11.83Q27.66 12.04 27.66 12.26L27.66 12.26L27.66 12.26Q27.66 12.52 27.80 12.61L27.80 12.61L27.80 12.61Q27.94 12.71 28.20 12.71L28.20 12.71L28.20 12.71Q28.42 12.71 28.76 12.66L28.76 12.66L28.76 12.66Q28.92 12.61 29.05 12.61L29.05 12.61L29.05 12.61Q29.15 12.61 29.20 12.68L29.20 12.68L29.20 12.68Q29.25 12.74 29.25 12.84L29.25 12.84L29.25 12.84Q29.26 13.12 28.83 13.52L28.83 13.52L28.83 13.52Q28.41 13.92 27.68 14.20L27.68 14.20L27.68 14.20Q26.95 14.49 26.07 14.49L26.07 14.49L26.07 14.49Q25.12 14.49 24.54 14.06L24.54 14.06L24.54 14.06Q23.97 13.62 23.97 12.87L23.97 12.87L23.97 12.87Q23.97 12.52 24.08 12.19L24.08 12.19L24.98 9.42L24.98 9.42Q25.05 9.18 25.05 9.04L25.05 9.04L25.05 9.04Q25.05 8.76 24.91 8.57L24.91 8.57L24.91 8.57Q24.78 8.37 24.54 8.16L24.54 8.16L24.54 8.16Q24.33 7.97 24.25 7.83L24.25 7.83L24.25 7.83Q24.16 7.70 24.21 7.52L24.21 7.52L24.21 7.52Q24.26 7.34 24.44 7.24L24.44 7.24L24.44 7.24Q24.63 7.14 25.02 7.14L25.02 7.14L25.80 7.14L26.68 6.26L26.68 6.26Q27.15 5.80 27.53 5.61L27.53 5.61L27.53 5.61Q27.92 5.43 28.53 5.43L28.53 5.43L28.53 5.43Q29.41 5.43 29.41 6.10L29.41 6.10L29.41 6.10Q29.41 6.31 29.36 6.50L29.36 6.50L29.16 7.14L29.90 7.14ZM39.10 9.67L38.25 12.43L38.25 12.43Q38.22 12.49 38.22 12.60L38.22 12.60L38.22 12.60Q38.22 12.70 38.27 12.75L38.27 12.75L38.27 12.75Q38.32 12.81 38.40 12.81L38.40 12.81L38.40 12.81Q38.57 12.81 38.69 12.66L38.69 12.66L38.69 12.66Q38.81 12.52 38.85 12.52L38.85 12.52L38.85 12.52Q38.92 12.52 38.96 12.61L38.96 12.61L38.96 12.61Q39.00 12.70 39.00 12.82L39.00 12.82L39.00 12.82Q39.02 13.23 38.74 13.62L38.74 13.62L38.74 13.62Q38.46 14 37.92 14.25L37.92 14.25L37.92 14.25Q37.38 14.49 36.62 14.49L36.62 14.49L36.62 14.49Q35.70 14.49 35.15 14.06L35.15 14.06L35.15 14.06Q34.61 13.64 34.59 12.92L34.59 12.92L34.59 12.92Q34.59 12.40 34.85 11.76L34.85 11.76L35.62 9.74L35.62 9.74Q35.69 9.56 35.69 9.45L35.69 9.45L35.69 9.45Q35.69 9.27 35.57 9.16L35.57 9.16L35.57 9.16Q35.45 9.06 35.28 9.06L35.28 9.06L35.28 9.06Q35.01 9.06 34.74 9.30L34.74 9.30L34.74 9.30Q34.47 9.55 34.30 10.09L34.30 10.09L34.30 10.07L33.42 12.91L33.42 12.91Q33.38 13.08 33.38 13.20L33.38 13.20L33.38 13.20Q33.38 13.38 33.45 13.49L33.45 13.49L33.45 13.49Q33.52 13.59 33.64 13.69L33.64 13.69L33.64 13.69Q33.74 13.79 33.78 13.85L33.78 13.85L33.78 13.85Q33.82 13.92 33.80 14.01L33.80 14.01L33.80 14.01Q33.73 14.20 33.52 14.28L33.52 14.28L33.52 14.28Q33.31 14.36 32.87 14.36L32.87 14.36L29.68 14.36L29.68 14.36Q29.32 14.36 29.15 14.25L29.15 14.25L29.15 14.25Q28.98 14.13 29.04 13.93L29.04 13.93L29.04 13.93Q29.09 13.76 29.33 13.64L29.33 13.64L29.33 13.64Q29.54 13.52 29.68 13.37L29.68 13.37L29.68 13.37Q29.82 13.22 29.92 12.88L29.92 12.88L32.05 5.89L32.05 5.89Q32.09 5.77 32.09 5.68L32.09 5.68L32.09 5.68Q32.09 5.53 32.01 5.43L32.01 5.43L32.01 5.43Q31.93 5.33 31.81 5.24L31.81 5.24L31.81 5.24Q31.67 5.12 31.61 5.04L31.61 5.04L31.61 5.04Q31.54 4.96 31.58 4.82L31.58 4.82L31.58 4.82Q31.67 4.49 32.47 4.26L32.47 4.26L32.47 4.26Q33.26 4.02 34.13 4.02L34.13 4.02L34.13 4.02Q34.94 4.02 35.33 4.33L35.33 4.33L35.33 4.33Q35.71 4.63 35.71 5.17L35.71 5.17L35.71 5.17Q35.71 5.47 35.62 5.77L35.62 5.77L34.86 8.23L34.86 8.23Q35.41 7.52 36.02 7.24L36.02 7.24L36.02 7.24Q36.62 6.96 37.34 6.96L37.34 6.96L37.34 6.96Q38.19 6.96 38.72 7.48L38.72 7.48L38.72 7.48Q39.24 7.99 39.24 8.82L39.24 8.82L39.24 8.82Q39.24 9.25 39.10 9.67L39.10 9.67ZM50.30 7.88L50.30 7.88Q50.08 8.69 49.46 9.15L49.46 9.15L49.46 9.15Q48.85 9.60 47.91 9.72L47.91 9.72L47.91 9.72Q48.58 9.77 48.92 10.11L48.92 10.11L48.92 10.11Q49.25 10.44 49.25 10.99L49.25 10.99L49.25 10.99Q49.25 11.20 49.18 11.51L49.18 11.51L49.03 12.19L49.03 12.19Q49 12.33 49 12.39L49 12.39L49 12.39Q49 12.57 49.08 12.66L49.08 12.66L49.08 12.66Q49.17 12.75 49.32 12.75L49.32 12.75L49.32 12.75Q49.62 12.75 49.75 12.84L49.75 12.84L49.75 12.84Q49.88 12.92 49.84 13.15L49.84 13.15L49.84 13.15Q49.78 13.47 49.50 13.78L49.50 13.78L49.50 13.78Q49.22 14.08 48.71 14.29L48.71 14.29L48.71 14.29Q48.20 14.49 47.47 14.49L47.47 14.49L47.47 14.49Q46.55 14.49 46.00 14.08L46.00 14.08L46.00 14.08Q45.46 13.66 45.46 12.89L45.46 12.89L45.46 12.89Q45.46 12.60 45.54 12.26L45.54 12.26L45.77 11.37L45.77 11.37Q45.82 11.19 45.82 10.99L45.82 10.99L45.82 10.99Q45.82 10.67 45.61 10.53L45.61 10.53L45.61 10.53Q45.39 10.39 44.91 10.39L44.91 10.39L44.38 10.39L43.74 12.71L43.74 12.71Q43.71 12.80 43.71 12.92L43.71 12.92L43.71 12.92Q43.71 13.12 43.81 13.26L43.81 13.26L43.81 13.26Q43.90 13.40 44.07 13.55L44.07 13.55L44.07 13.55Q44.20 13.65 44.27 13.74L44.27 13.74L44.27 13.74Q44.34 13.83 44.34 13.93L44.34 13.93L44.34 13.93Q44.34 14.17 44.11 14.27L44.11 14.27L44.11 14.27Q43.89 14.36 43.46 14.36L43.46 14.36L39.94 14.36L39.94 14.36Q39.58 14.36 39.40 14.23L39.40 14.23L39.40 14.23Q39.21 14.10 39.27 13.86L39.27 13.86L39.27 13.86Q39.30 13.73 39.38 13.66L39.38 13.66L39.38 13.66Q39.45 13.58 39.61 13.48L39.61 13.48L39.61 13.48Q39.84 13.34 39.98 13.19L39.98 13.19L39.98 13.19Q40.12 13.03 40.21 12.71L40.21 12.71L41.92 6.68L41.92 6.68Q41.97 6.50 41.97 6.33L41.97 6.33L41.97 6.33Q41.97 6.17 41.92 6.07L41.92 6.07L41.92 6.07Q41.87 5.96 41.79 5.82L41.79 5.82L41.79 5.82Q41.66 5.64 41.66 5.53L41.66 5.53L41.66 5.53Q41.66 5.49 41.69 5.38L41.69 5.38L41.69 5.38Q41.75 5.19 41.94 5.12L41.94 5.12L41.94 5.12Q42.13 5.04 42.52 5.04L42.52 5.04L47.21 5.04L47.21 5.04Q48.17 5.04 48.90 5.33L48.90 5.33L48.90 5.33Q49.62 5.63 50.00 6.14L50.00 6.14L50.00 6.14Q50.39 6.65 50.39 7.29L50.39 7.29L50.39 7.29Q50.39 7.59 50.30 7.88L50.30 7.88ZM46.72 7.74L46.72 7.74Q46.79 7.42 46.79 7.25L46.79 7.25L46.79 7.25Q46.79 6.51 45.98 6.51L45.98 6.51L45.39 6.51L44.77 8.99L45.36 8.99L45.36 8.99Q45.91 8.99 46.22 8.72L46.22 8.72L46.22 8.72Q46.54 8.46 46.72 7.74L46.72 7.74ZM54.98 6.89L54.98 6.89Q56.76 6.89 57.55 7.46L57.55 7.46L57.55 7.46Q58.35 8.02 58.35 8.90L58.35 8.90L58.35 8.90Q58.35 9.17 58.30 9.39L58.30 9.39L58.30 9.39Q58.09 10.32 57.13 10.72L57.13 10.72L57.13 10.72Q56.17 11.12 54.87 11.12L54.87 11.12L54.87 11.12Q54.21 11.12 53.63 11.03L53.63 11.03L53.63 11.03Q53.62 11.76 54.03 12.05L54.03 12.05L54.03 12.05Q54.43 12.35 55.16 12.35L55.16 12.35L55.16 12.35Q55.50 12.35 55.80 12.27L55.80 12.27L55.80 12.27Q56.11 12.19 56.59 12.04L56.59 12.04L56.59 12.04Q56.98 11.90 57.12 11.90L57.12 11.90L57.12 11.90Q57.27 11.90 57.27 12.08L57.27 12.08L57.27 12.08Q57.29 12.57 56.91 13.11L56.91 13.11L56.91 13.11Q56.53 13.65 55.79 14.03L55.79 14.03L55.79 14.03Q55.05 14.41 54.00 14.41L54.00 14.41L54.00 14.41Q52.44 14.41 51.45 13.62L51.45 13.62L51.45 13.62Q50.46 12.84 50.46 11.34L50.46 11.34L50.46 11.34Q50.46 10.92 50.57 10.36L50.57 10.36L50.57 10.36Q50.92 8.64 52.10 7.76L52.10 7.76L52.10 7.76Q53.28 6.89 54.98 6.89L54.98 6.89ZM53.73 10.19L53.73 10.19Q53.79 10.21 53.89 10.21L53.89 10.21L53.89 10.21Q54.47 10.21 54.78 9.66L54.78 9.66L54.78 9.66Q55.09 9.11 55.08 8.44L55.08 8.44L55.08 8.44Q55.06 8.05 54.85 8.05L54.85 8.05L54.85 8.05Q54.70 8.05 54.49 8.30L54.49 8.30L54.49 8.30Q54.28 8.54 54.08 9.03L54.08 9.03L54.08 9.03Q53.87 9.52 53.73 10.19L53.73 10.19ZM63.15 6.89L63.15 6.89Q64.01 6.89 64.65 7.13L64.65 7.13L64.65 7.13Q65.30 7.38 65.65 7.81L65.65 7.81L65.65 7.81Q66.01 8.23 66.01 8.75L66.01 8.75L66.01 8.75Q66.01 9.31 65.63 9.67L65.63 9.67L65.63 9.67Q65.24 10.04 64.58 10.04L64.58 10.04L64.58 10.04Q63.91 10.04 63.53 9.70L63.53 9.70L63.53 9.70Q63.15 9.35 63.15 8.76L63.15 8.76L63.15 8.76Q63.15 8.48 63.24 8.18L63.24 8.18L63.24 8.18Q62.65 8.33 62.20 8.79L62.20 8.79L62.20 8.79Q61.74 9.24 61.59 9.98L61.59 9.98L61.59 9.98Q61.50 10.40 61.50 10.74L61.50 10.74L61.50 10.74Q61.50 11.49 61.92 11.89L61.92 11.89L61.92 11.89Q62.34 12.28 63.13 12.28L63.13 12.28L63.13 12.28Q63.57 12.28 63.90 12.19L63.90 12.19L63.90 12.19Q64.22 12.10 64.55 11.94L64.55 11.94L64.55 11.94Q64.83 11.80 64.96 11.80L64.96 11.80L64.96 11.80Q65.04 11.80 65.07 11.84L65.07 11.84L65.07 11.84Q65.10 11.87 65.10 11.98L65.10 11.98L65.10 11.98Q65.11 12.50 64.67 13.07L64.67 13.07L64.67 13.07Q64.23 13.64 63.46 14.02L63.46 14.02L63.46 14.02Q62.68 14.41 61.71 14.41L61.71 14.41L61.71 14.41Q60.70 14.41 59.93 14.04L59.93 14.04L59.93 14.04Q59.15 13.66 58.72 12.97L58.72 12.97L58.72 12.97Q58.30 12.28 58.30 11.35L58.30 11.35L58.30 11.35Q58.30 10.92 58.41 10.39L58.41 10.39L58.41 10.39Q58.79 8.65 60.08 7.77L60.08 7.77L60.08 7.77Q61.38 6.89 63.15 6.89L63.15 6.89ZM71.08 6.96L71.08 6.96Q72.98 6.96 73.88 7.73L73.88 7.73L73.88 7.73Q74.79 8.50 74.79 9.74L74.79 9.74L74.79 9.74Q74.79 10.16 74.68 10.68L74.68 10.68L74.68 10.68Q74.41 11.83 73.68 12.69L73.68 12.69L73.68 12.69Q72.95 13.55 71.90 14.02L71.90 14.02L71.90 14.02Q70.84 14.49 69.61 14.49L69.61 14.49L69.61 14.49Q67.66 14.49 66.73 13.71L66.73 13.71L66.73 13.71Q65.80 12.94 65.80 11.65L65.80 11.65L65.80 11.65Q65.80 11.21 65.91 10.68L65.91 10.68L65.91 10.68Q66.18 9.59 66.93 8.74L66.93 8.74L66.93 8.74Q67.68 7.90 68.76 7.43L68.76 7.43L68.76 7.43Q69.85 6.96 71.08 6.96L71.08 6.96ZM71.04 8.20L71.04 8.20Q70.74 8.20 70.41 8.73L70.41 8.73L70.41 8.73Q70.08 9.25 69.64 10.71L69.64 10.71L69.64 10.71Q69.19 12.17 69.19 12.75L69.19 12.75L69.19 12.75Q69.19 13.06 69.29 13.17L69.29 13.17L69.29 13.17Q69.38 13.27 69.55 13.27L69.55 13.27L69.55 13.27Q69.85 13.30 70.16 12.77L70.16 12.77L70.16 12.77Q70.48 12.24 70.95 10.70L70.95 10.70L70.95 10.70Q71.39 9.34 71.39 8.72L71.39 8.72L71.39 8.72Q71.39 8.43 71.30 8.32L71.30 8.32L71.30 8.32Q71.20 8.20 71.04 8.20L71.04 8.20ZM84.36 9.67L83.51 12.43L83.51 12.43Q83.48 12.49 83.48 12.60L83.48 12.60L83.48 12.60Q83.48 12.70 83.53 12.75L83.53 12.75L83.53 12.75Q83.58 12.81 83.66 12.81L83.66 12.81L83.66 12.81Q83.83 12.81 83.95 12.66L83.95 12.66L83.95 12.66Q84.07 12.52 84.11 12.52L84.11 12.52L84.11 12.52Q84.18 12.52 84.22 12.61L84.22 12.61L84.22 12.61Q84.27 12.70 84.27 12.82L84.27 12.82L84.27 12.82Q84.28 13.23 84 13.62L84 13.62L84 13.62Q83.72 14 83.18 14.25L83.18 14.25L83.18 14.25Q82.64 14.49 81.89 14.49L81.89 14.49L81.89 14.49Q80.96 14.49 80.42 14.06L80.42 14.06L80.42 14.06Q79.87 13.64 79.86 12.92L79.86 12.92L79.86 12.92Q79.86 12.40 80.11 11.76L80.11 11.76L80.88 9.74L80.88 9.74Q80.95 9.56 80.95 9.45L80.95 9.45L80.95 9.45Q80.95 9.27 80.83 9.16L80.83 9.16L80.83 9.16Q80.71 9.06 80.54 9.06L80.54 9.06L80.54 9.06Q80.23 9.06 79.95 9.35L79.95 9.35L79.95 9.35Q79.67 9.63 79.55 10.05L79.55 10.05L78.68 12.91L78.68 12.91Q78.62 13.06 78.62 13.20L78.62 13.20L78.62 13.20Q78.62 13.37 78.69 13.48L78.69 13.48L78.69 13.48Q78.76 13.58 78.89 13.69L78.89 13.69L78.89 13.69Q78.99 13.78 79.03 13.85L79.03 13.85L79.03 13.85Q79.07 13.92 79.04 14.01L79.04 14.01L79.04 14.01Q78.99 14.20 78.78 14.28L78.78 14.28L78.78 14.28Q78.57 14.36 78.12 14.36L78.12 14.36L74.93 14.36L74.93 14.36Q74.56 14.36 74.40 14.25L74.40 14.25L74.40 14.25Q74.24 14.13 74.28 13.93L74.28 13.93L74.28 13.93Q74.34 13.76 74.58 13.64L74.58 13.64L74.58 13.64Q74.79 13.52 74.93 13.37L74.93 13.37L74.93 13.37Q75.07 13.22 75.17 12.88L75.17 12.88L76.41 8.83L76.41 8.83Q76.44 8.76 76.44 8.64L76.44 8.64L76.44 8.64Q76.44 8.48 76.38 8.40L76.38 8.40L76.38 8.40Q76.31 8.32 76.17 8.19L76.17 8.19L76.17 8.19Q76.03 8.08 75.98 7.99L75.98 7.99L75.98 7.99Q75.92 7.91 75.96 7.77L75.96 7.77L75.96 7.77Q76.05 7.45 76.85 7.20L76.85 7.20L76.85 7.20Q77.64 6.96 78.51 6.96L78.51 6.96L78.51 6.96Q79.21 6.96 79.62 7.34L79.62 7.34L79.62 7.34Q80.02 7.73 79.98 8.41L79.98 8.41L79.98 8.41Q80.56 7.59 81.20 7.27L81.20 7.27L81.20 7.27Q81.84 6.96 82.60 6.96L82.60 6.96L82.60 6.96Q83.45 6.96 83.98 7.48L83.98 7.48L83.98 7.48Q84.50 7.99 84.50 8.82L84.50 8.82L84.50 8.82Q84.50 9.25 84.36 9.67L84.36 9.67Z"></path></g><!----><g data-v-d3f97b9e="" id="29e7616c-8bff-4f6f-96cc-ba956e11cc61" transform="matrix(1.1111092461480034,0,0,1.1111092461480034,0.6030509167867351,0.44464066261534896)" stroke="none" fill="#FFFFFF"><path d="M67.83 64.129c.028-2.929.017-9.357-.493-15.71.045 2.677.115 5.127.206 6.409.051.735.163 4.585.287 9.301zM43.334 9.037c.087-2.058-.024-4.262 1.72-4.136.837.061 2.279.274 4.063.631 1.978.396 1.699 11.121 1.699 11.121l7.171 2.788c.236-7.761-1.704-16.773-3.64-17.325-3.244-.925-8.005-2.854-12.736-1.819-3.161.691-4.007 12.296-4.007 12.296l5.532 1.449s.058-1.712.198-5.005zM9.969 48.267c1.165.431 3.085 1.064 5.358 1.777 1.699-4.705 4.58-8.294 4.58-8.294s.665-1.743 4.006-1.041c3.341.701 3.497 2.226 3.497 2.226s-2.164 3.508-4.268 8.236c-.13.292-.301.655-.431 1.102 5.297 1.544 10.415 2.911 11.887 3.045 2.897.265 10.174.583 11.557-6.42 1.364-6.911 2.714-11.127 3.864-13.759.23-.575.437-1.051.589-1.395.313-.708 1.266-2.128 2.652-3.52v-.002c.004-.01.01-.015.018-.017 1.852-1.85 4.472-3.642 7.397-3.631.154 0 .342.019.551.051-1.721-1.914-3.682-3.544-5.77-4.349-.475-.183-17.718-6.998-22.87-6.269l-.419.06.419-.06s-11.811.293-19.621 8.097c-4.08 4.076-7.662 11.388-9.911 18.414-.029 1.783 2.246 4.023 6.915 5.749z"></path><path d="M33.018 60.553c-2.322-.426-6.635-1.608-11.232-2.967-.7 2.769-.105 7.525-.105 7.525s-.904 2.158-4.467 1.369c-3.036-.674-2.958-2.865-2.958-2.865s-.776-4.446-.092-8.359c-4.376-1.378-8.094-2.615-9.462-3.14-1.646-.63-2.833-1.508-3.688-2.489-.063.389-.119 1.96-.172 2.334-3.102 22.092 3.336 31.606 3.792 33.615.613 2.701 12.381 8.364 23.741 12.513 6.59 2.407 13.947 1.94 16.869 1.73l.214-.012c.465-8.542 1.731-30.777 2.352-44.384-.984 4.996-9.233 6.148-14.792 5.13zM67.83 64.129c-.124-4.716-.235-8.564-.287-9.303-.091-1.28-.161-3.73-.206-6.408-.455-5.656-1.913-11.727-3.16-14.882-2.096-5.312-8.183 1.351-9.902 5.546-1.78 4.344-3.465 54.419-3.629 59.383 4.25-1.107 10.338-2.696 11.084-3.867 1.581-2.476 2.438-4.873 2.833-6.914.262-1.359 3.777-2.63 3.777-2.63s-.249-10.8-.474-19.516l-.062.23c0 .002.017-.599.026-1.639z"></path><path d="M83.415 42.354s-.901-10.732-1.105-12.818c-.494-5.037-5.038-21.237-20.526-8.825l4.103 4.476s10.496-9.432 10.892 13.042c.033 1.902.159 4.559 1.303 20.549 1.266 17.679-5.648 17.777-5.648 17.777l.312 7.518s2.568-.672 5.22-1.788c3.753-1.581 7.349-8.198 7.349-17.897-.004-3.838-1.9-22.034-1.9-22.034zM29.176 12.348l3.424-.526V8.924l.659-2.37s-3.162 1.449-4.083 2.897c-.922 1.449-1.318 2.239-1.318 2.897 0 .659 1.318 0 1.318 0z"></path></g><!----><g data-v-d3f97b9e="" id="9e54a233-2e1d-4c66-a98f-bb2fd2429b2a" fill="#FFFFFF" transform="matrix(0.656074102451289,0,0,0.656074102451289,114.58386120059998,58.20235648445053)"><path d="M0.71 3.64L0.32 3.64L0.33 3.08L3.55 3.08L3.55 3.08Q4.69 3.08 5.29 3.21L5.29 3.21L5.29 3.21Q5.93 3.37 6.40 3.75L6.40 3.75L6.40 3.75Q7.40 4.57 7.40 5.71L7.40 5.71L7.40 5.71Q7.40 6.43 6.93 7.04L6.93 7.04L6.93 7.04Q6.44 7.66 5.41 7.92L5.41 7.92L8.09 11.49L8.09 11.49Q8.40 11.87 8.70 11.87L8.70 11.87L9.30 11.87L9.32 12.41L7.29 12.41L4.30 8.10L4.13 8.10L4.13 8.10Q4.09 8.10 4.03 8.11L4.03 8.11L4.03 8.11Q3.98 8.11 3.96 8.11L3.96 8.11L3.96 8.11Q3.08 8.11 2.69 8.03L2.69 8.03L2.69 11.46L2.69 11.46Q2.69 11.76 2.83 11.81L2.83 11.81L2.83 11.81Q2.95 11.87 3.66 11.87L3.66 11.87L4.37 11.87L4.34 12.41L0.62 12.41L0.62 11.87L0.94 11.87L0.94 11.87Q1.40 11.87 1.47 11.81L1.47 11.81L1.47 11.81Q1.55 11.74 1.55 11.46L1.55 11.46L1.55 4.14L1.55 4.14Q1.55 3.82 1.36 3.73L1.36 3.73L1.36 3.73Q1.13 3.64 0.71 3.64L0.71 3.64ZM2.69 4.28L2.69 7.57L2.69 7.57Q2.87 7.70 3.58 7.71L3.58 7.71L3.58 7.71Q4.85 7.71 5.43 7.27L5.43 7.27L5.43 7.27Q6.02 6.84 6.02 5.92L6.02 5.92L6.02 5.92Q6.02 4.92 5.25 4.27L5.25 4.27L5.25 4.27Q4.49 3.64 3.11 3.64L3.11 3.64L3.11 3.64Q2.86 3.64 2.78 3.75L2.78 3.75L2.78 3.75Q2.69 3.84 2.69 4.28L2.69 4.28ZM17.09 3.64L17.08 3.08L24.29 3.08L24.29 3.08Q24.30 4.14 24.36 5.28L24.36 5.28L23.81 5.30L23.81 5.30Q23.80 4.66 23.74 4.25L23.74 4.25L23.74 4.25Q23.70 3.89 23.65 3.80L23.65 3.80L23.65 3.80Q23.59 3.71 23.47 3.69L23.47 3.69L23.47 3.69Q23.38 3.68 22.79 3.68L22.79 3.68L20.41 3.68L20.41 3.68Q19.87 3.68 19.72 3.77L19.72 3.77L19.72 3.77Q19.60 3.86 19.60 4.33L19.60 4.33L19.60 6.28L19.60 6.28Q19.60 6.69 19.65 6.76L19.65 6.76L19.65 6.76Q19.72 6.84 20.06 6.84L20.06 6.84L22.18 6.84L22.18 6.84Q22.54 6.84 22.62 6.73L22.62 6.73L22.62 6.73Q22.70 6.63 22.71 6.14L22.71 6.14L22.71 5.61L23.22 5.63L23.22 8.97L22.71 8.97L22.71 8.24L22.71 8.24Q22.71 7.66 22.63 7.57L22.63 7.57L22.63 7.57Q22.55 7.46 22.20 7.46L22.20 7.46L20.10 7.46L20.10 7.46Q19.77 7.46 19.68 7.54L19.68 7.54L19.68 7.54Q19.60 7.63 19.60 7.89L19.60 7.89L19.60 11.20L19.60 11.20Q19.60 11.57 19.68 11.67L19.68 11.67L19.68 11.67Q19.77 11.77 20.04 11.77L20.04 11.77L20.04 11.77Q22.96 11.75 23.49 11.69L23.49 11.69L23.49 11.69Q24.01 11.63 24.09 11.38L24.09 11.38L24.10 11.36L24.10 11.35L24.33 10.17L24.81 10.25L24.46 12.41L17.36 12.41L17.36 11.87L17.73 11.87L17.73 11.87Q18.29 11.87 18.37 11.80L18.37 11.80L18.37 11.80Q18.46 11.72 18.46 11.33L18.46 11.33L18.46 4.24L18.46 4.24Q18.46 3.82 18.31 3.73L18.31 3.73L18.31 3.73Q18.14 3.64 17.49 3.64L17.49 3.64L17.09 3.64ZM33.07 8.02L33.07 8.02L33.07 8.02Q33.07 6.86 33.54 5.83L33.54 5.83L33.54 5.83Q34.00 4.85 34.75 4.27L34.75 4.27L34.75 4.27Q35.50 3.69 36.39 3.37L36.39 3.37L36.39 3.37Q37.29 3.05 38.13 3.05L38.13 3.05L38.13 3.05Q39.00 3.05 39.67 3.16L39.67 3.16L39.67 3.16Q40.30 3.26 40.59 3.37L40.59 3.37L40.59 3.37Q40.90 3.48 40.93 3.48L40.93 3.48L40.93 3.48Q41.10 3.48 41.13 3.41L41.13 3.41L41.13 3.41Q41.15 3.33 41.15 3.09L41.15 3.09L41.15 2.97L41.69 2.97L41.69 2.97Q41.73 4.30 41.86 5.64L41.86 5.64L41.35 5.65L41.35 5.65Q41.32 5.40 41.31 5.26L41.31 5.26L41.31 5.26Q41.31 5.20 41.30 5.13L41.30 5.13L41.30 5.13Q41.30 5.07 41.29 5.02L41.29 5.02L41.29 5.02Q41.28 4.98 41.28 4.95L41.28 4.95L41.28 4.95Q41.25 4.84 41.25 4.74L41.25 4.74L41.25 4.74Q41.25 4.68 41.21 4.59L41.21 4.59L41.21 4.59Q41.21 4.57 41.18 4.55L41.18 4.55L41.18 4.55Q41.15 4.52 41.15 4.50L41.15 4.50L41.15 4.50Q41.13 4.44 41.06 4.41L41.06 4.41L41.06 4.41Q41.02 4.38 40.99 4.37L40.99 4.37L40.99 4.37Q40.96 4.36 40.93 4.35L40.93 4.35L40.93 4.35Q40.92 4.35 40.90 4.33L40.90 4.33L40.90 4.33Q40.87 4.31 40.83 4.29L40.83 4.29L40.83 4.29Q40.79 4.27 40.75 4.25L40.75 4.25L40.75 4.25Q40.52 4.16 40.50 4.14L40.50 4.14L40.50 4.14Q40.15 3.96 39.50 3.83L39.50 3.83L39.50 3.83Q38.83 3.71 38.17 3.71L38.17 3.71L38.17 3.71Q36.45 3.71 35.36 4.84L35.36 4.84L35.36 4.84Q34.25 5.99 34.25 7.62L34.25 7.62L34.25 7.62Q34.25 9.35 35.47 10.69L35.47 10.69L35.47 10.69Q36.67 12.02 38.49 12.02L38.49 12.02L38.49 12.02Q39.50 12.02 40.44 11.49L40.44 11.49L40.44 11.49Q41.39 10.94 41.42 10.58L41.42 10.58L41.46 9.41L41.95 9.41L41.87 11.45L41.87 11.45Q41.80 11.49 41.67 11.57L41.67 11.57L41.67 11.57Q41.62 11.60 41.15 11.85L41.15 11.85L41.15 11.85Q40.78 12.05 40.33 12.23L40.33 12.23L40.33 12.23Q39.97 12.39 39.32 12.51L39.32 12.51L39.32 12.51Q38.71 12.63 38.14 12.64L38.14 12.64L38.14 12.64Q35.77 12.64 34.41 11.39L34.41 11.39L34.41 11.39Q33.07 10.14 33.07 8.02ZM50.37 7.83L50.37 7.83L50.37 7.83Q50.37 6.62 50.77 5.68L50.77 5.68L50.77 5.68Q51.19 4.72 51.88 4.12L51.88 4.12L51.88 4.12Q52.57 3.51 53.43 3.19L53.43 3.19L53.43 3.19Q54.27 2.88 55.22 2.88L55.22 2.88L55.22 2.88Q56.48 2.88 57.53 3.40L57.53 3.40L57.53 3.40Q58.61 3.93 59.32 5.07L59.32 5.07L59.32 5.07Q60.02 6.17 60.03 7.75L60.03 7.75L60.03 7.75Q60.03 8.70 59.72 9.54L59.72 9.54L59.72 9.54Q59.41 10.38 58.81 11.10L58.81 11.10L58.81 11.10Q58.20 11.81 57.26 12.22L57.26 12.22L57.26 12.22Q56.30 12.63 55.11 12.64L55.11 12.64L55.11 12.64Q53.98 12.64 53.04 12.23L53.04 12.23L53.04 12.23Q52.10 11.83 51.54 11.14L51.54 11.14L51.54 11.14Q50.97 10.45 50.67 9.60L50.67 9.60L50.67 9.60Q50.37 8.72 50.37 7.83ZM51.63 7.38L51.63 7.38L51.63 7.38Q51.63 8.52 52.06 9.60L52.06 9.60L52.06 9.60Q52.46 10.64 53.39 11.33L53.39 11.33L53.39 11.33Q54.30 12.03 55.49 12.04L55.49 12.04L55.49 12.04Q56.86 12.04 57.80 11.01L57.80 11.01L57.80 11.01Q58.75 9.97 58.75 8.10L58.75 8.10L58.75 8.10Q58.75 5.99 57.59 4.72L57.59 4.72L57.59 4.72Q56.44 3.46 54.93 3.45L54.93 3.45L54.93 3.45Q54.41 3.45 53.86 3.65L53.86 3.65L53.86 3.65Q53.32 3.85 52.81 4.25L52.81 4.25L52.81 4.25Q52.27 4.68 51.95 5.48L51.95 5.48L51.95 5.48Q51.63 6.27 51.63 7.38ZM68.15 3.64L68.14 3.08L70.31 3.08L76.05 10.48L76.05 4.14L76.05 4.14Q76.05 3.81 75.90 3.72L75.90 3.72L75.90 3.72Q75.74 3.64 75.28 3.64L75.28 3.64L74.79 3.64L74.82 3.08L77.80 3.08L77.80 3.64L77.48 3.64L77.48 3.64Q77.01 3.64 76.86 3.75L76.86 3.75L76.86 3.75Q76.71 3.86 76.71 4.25L76.71 4.25L76.71 12.32L76.71 12.47L76.71 12.47Q76.71 12.52 76.70 12.57L76.70 12.57L76.70 12.57Q76.69 12.61 76.65 12.64L76.65 12.64L76.65 12.64Q76.64 12.65 76.58 12.65L76.58 12.65L76.39 12.65L76.33 12.65L76.30 12.65L76.28 12.64L76.28 12.64Q76.25 12.64 76.23 12.63L76.23 12.63L76.23 12.63Q76.22 12.61 76.22 12.60L76.22 12.60L76.22 12.60Q76.22 12.58 76.21 12.57L76.21 12.57L76.21 12.57Q76.18 12.54 76.15 12.50L76.15 12.50L76.15 12.50Q76.14 12.48 76.12 12.45L76.12 12.45L76.12 12.45Q76.10 12.41 76.08 12.40L76.08 12.40L69.98 4.56L70.05 11.22L70.05 11.22Q70.05 11.67 70.21 11.77L70.21 11.77L70.21 11.77Q70.37 11.87 71.08 11.87L71.08 11.87L71.32 11.87L71.32 12.41L68.38 12.41L68.38 11.87L68.80 11.87L68.80 11.87Q69.18 11.87 69.29 11.76L69.29 11.76L69.29 11.76Q69.38 11.66 69.39 11.25L69.39 11.25L69.39 3.80L69.25 3.64L68.15 3.64ZM85.51 10.04L85.51 10.04L86.00 9.98L86.19 10.85L86.19 10.85Q86.30 11.33 86.37 11.41L86.37 11.41L86.37 11.41Q86.43 11.49 86.84 11.64L86.84 11.64L86.84 11.64Q87.68 11.95 88.58 11.95L88.58 11.95L88.58 11.95Q89.37 11.95 89.91 11.49L89.91 11.49L89.91 11.49Q90.44 11.04 90.44 10.26L90.44 10.26L90.44 10.26Q90.44 9.65 89.98 9.21L89.98 9.21L89.98 9.21Q89.50 8.76 88.65 8.30L88.65 8.30L88.07 7.98L88.07 7.98Q87.33 7.55 87.10 7.36L87.10 7.36L87.10 7.36Q86.73 7.08 86.42 6.59L86.42 6.59L86.42 6.59Q86.11 6.10 86.11 5.46L86.11 5.46L86.11 5.46Q86.11 4.39 86.95 3.68L86.95 3.68L86.95 3.68Q87.79 2.97 88.90 2.97L88.90 2.97L88.90 2.97Q89.18 2.97 89.53 3.04L89.53 3.04L89.53 3.04Q89.73 3.08 90.06 3.17L90.06 3.17L90.30 3.25L90.30 3.25Q90.40 3.25 90.44 3.16L90.44 3.16L90.44 3.16Q90.49 3.05 90.49 2.98L90.49 2.98L90.51 2.88L90.99 2.85L91.20 5.41L90.69 5.43L90.57 4.18L90.57 4.18Q89.82 3.62 88.66 3.62L88.66 3.62L88.66 3.62Q88.02 3.62 87.51 4.05L87.51 4.05L87.51 4.05Q87.04 4.47 87.04 5.12L87.04 5.12L87.04 5.12Q87.04 5.72 87.49 6.17L87.49 6.17L87.49 6.17Q87.92 6.60 88.79 7.08L88.79 7.08L89.56 7.50L89.56 7.50Q90.51 8.03 91.04 8.59L91.04 8.59L91.04 8.59Q91.57 9.15 91.57 9.92L91.57 9.92L91.57 9.92Q91.57 10.99 90.72 11.76L90.72 11.76L90.72 11.76Q89.85 12.54 88.40 12.54L88.40 12.54L88.40 12.54Q87.83 12.54 87.33 12.41L87.33 12.41L87.33 12.41Q86.83 12.29 86.78 12.29L86.78 12.29L86.78 12.29Q86.52 12.29 86.52 12.58L86.52 12.58L86.54 12.76L86.06 12.80L86.06 12.80Q86.00 12.41 85.51 10.04ZM100.34 3.64L99.76 3.64L99.77 3.08L103.28 3.08L103.28 3.64L103.05 3.64L103.05 3.64Q102.50 3.64 102.33 3.73L102.33 3.73L102.33 3.73Q102.20 3.81 102.20 4.28L102.20 4.28L102.20 11.22L102.20 11.22Q102.20 11.68 102.31 11.77L102.31 11.77L102.31 11.77Q102.42 11.87 102.95 11.87L102.95 11.87L103.50 11.87L103.51 12.41L99.93 12.41L99.91 11.87L100.28 11.87L100.28 11.87Q100.84 11.87 100.95 11.77L100.95 11.77L100.95 11.77Q101.06 11.67 101.06 11.25L101.06 11.25L101.06 4.14L101.06 4.14Q101.06 3.77 100.96 3.71L100.96 3.71L100.96 3.71Q100.85 3.64 100.34 3.64L100.34 3.64ZM111.74 3.64L111.25 3.64L111.26 3.08L114.85 3.08L114.85 3.64L114.21 3.64L114.21 3.64Q113.84 3.64 113.73 3.72L113.73 3.72L113.73 3.72Q113.61 3.80 113.61 4.16L113.61 4.16L113.61 11.22L113.61 11.22Q113.61 11.57 113.70 11.67L113.70 11.67L113.70 11.67Q113.78 11.77 114.08 11.77L114.08 11.77L114.08 11.77Q116.95 11.74 117.61 11.63L117.61 11.63L117.61 11.63Q117.82 11.61 117.90 11.39L117.90 11.39L117.90 11.39Q117.98 11.17 118.18 10.05L118.18 10.05L118.67 10.08L118.21 12.41L111.45 12.41L111.43 11.87L111.82 11.87L111.82 11.87Q112.33 11.87 112.40 11.80L112.40 11.80L112.40 11.80Q112.48 11.72 112.49 11.33L112.49 11.33L112.49 4.09L112.49 4.09Q112.49 3.80 112.33 3.72L112.33 3.72L112.33 3.72Q112.18 3.64 111.74 3.64L111.74 3.64ZM126.99 3.64L126.40 3.64L126.42 3.08L129.93 3.08L129.93 3.64L129.70 3.64L129.70 3.64Q129.15 3.64 128.98 3.73L128.98 3.73L128.98 3.73Q128.84 3.81 128.84 4.28L128.84 4.28L128.84 11.22L128.84 11.22Q128.84 11.68 128.95 11.77L128.95 11.77L128.95 11.77Q129.06 11.87 129.60 11.87L129.60 11.87L130.14 11.87L130.16 12.41L126.57 12.41L126.56 11.87L126.92 11.87L126.92 11.87Q127.48 11.87 127.60 11.77L127.60 11.77L127.60 11.77Q127.71 11.67 127.71 11.25L127.71 11.25L127.71 4.14L127.71 4.14Q127.71 3.77 127.61 3.71L127.61 3.71L127.61 3.71Q127.50 3.64 126.99 3.64L126.99 3.64ZM137.91 3.64L137.89 3.08L140.07 3.08L145.80 10.48L145.80 4.14L145.80 4.14Q145.80 3.81 145.65 3.72L145.65 3.72L145.65 3.72Q145.50 3.64 145.04 3.64L145.04 3.64L144.55 3.64L144.57 3.08L147.55 3.08L147.55 3.64L147.23 3.64L147.23 3.64Q146.77 3.64 146.62 3.75L146.62 3.75L146.62 3.75Q146.47 3.86 146.47 4.25L146.47 4.25L146.47 12.32L146.47 12.47L146.47 12.47Q146.47 12.52 146.45 12.57L146.45 12.57L146.45 12.57Q146.44 12.61 146.41 12.64L146.41 12.64L146.41 12.64Q146.39 12.65 146.34 12.65L146.34 12.65L146.15 12.65L146.08 12.65L146.06 12.65L146.03 12.64L146.03 12.64Q146.00 12.64 145.99 12.63L145.99 12.63L145.99 12.63Q145.97 12.61 145.97 12.60L145.97 12.60L145.97 12.60Q145.97 12.58 145.96 12.57L145.96 12.57L145.96 12.57Q145.93 12.54 145.91 12.50L145.91 12.50L145.91 12.50Q145.89 12.48 145.87 12.45L145.87 12.45L145.87 12.45Q145.85 12.41 145.84 12.40L145.84 12.40L139.73 4.56L139.80 11.22L139.80 11.22Q139.80 11.67 139.97 11.77L139.97 11.77L139.97 11.77Q140.12 11.87 140.83 11.87L140.83 11.87L141.07 11.87L141.07 12.41L138.13 12.41L138.13 11.87L138.56 11.87L138.56 11.87Q138.93 11.87 139.04 11.76L139.04 11.76L139.04 11.76Q139.14 11.66 139.15 11.25L139.15 11.25L139.15 3.80L139.00 3.64L137.91 3.64ZM155.67 8.24L155.67 8.24L155.67 8.24Q155.67 6.92 156.29 5.72L156.29 5.72L156.29 5.72Q156.91 4.52 158.14 3.72L158.14 3.72L158.14 3.72Q159.37 2.92 160.99 2.92L160.99 2.92L160.99 2.92Q162.26 2.92 163.85 3.57L163.85 3.57L163.85 2.86L164.41 2.86L164.51 5.92L163.96 5.93L163.86 4.48L163.86 4.48Q163.78 4.41 163.51 4.24L163.51 4.24L163.51 4.24Q163.26 4.07 162.50 3.83L162.50 3.83L162.50 3.83Q161.78 3.60 160.88 3.60L160.88 3.60L160.88 3.60Q159.90 3.60 159.13 3.93L159.13 3.93L159.13 3.93Q158.36 4.27 157.90 4.83L157.90 4.83L157.90 4.83Q157.43 5.39 157.19 6.08L157.19 6.08L157.19 6.08Q156.93 6.78 156.93 7.57L156.93 7.57L156.93 7.57Q156.93 9.33 158.05 10.69L158.05 10.69L158.05 10.69Q159.17 12.05 161.03 12.05L161.03 12.05L161.03 12.05Q161.73 12.05 162.36 11.85L162.36 11.85L162.36 11.85Q163.00 11.66 163.21 11.48L163.21 11.48L163.45 11.28L163.45 8.78L161.79 8.78L161.78 8.23L165.64 8.23L165.66 8.78L164.59 8.78L164.59 11.64L163.80 11.98L163.80 11.98Q163.11 12.30 162.88 12.39L162.88 12.39L162.88 12.39Q162.63 12.48 161.98 12.61L161.98 12.61L161.98 12.61Q161.38 12.74 160.77 12.74L160.77 12.74L160.77 12.74Q159.47 12.74 158.50 12.37L158.50 12.37L158.50 12.37Q157.51 12.00 156.89 11.36L156.89 11.36L156.89 11.36Q156.30 10.76 155.98 9.94L155.98 9.94L155.98 9.94Q155.67 9.15 155.67 8.24ZM186.13 12.41L183.11 12.41L183.11 11.87L183.24 11.87L183.24 11.87Q183.83 11.87 183.95 11.77L183.95 11.77L183.95 11.77Q184.07 11.68 184.08 11.21L184.08 11.21L184.21 4.38L184.21 4.38Q184.21 4.35 184.22 4.28L184.22 4.28L184.22 4.28Q184.23 4.21 184.23 4.17L184.23 4.17L184.23 4.01L184.23 4.01Q184.23 3.76 184.15 3.71L184.15 3.71L184.15 3.71Q184.06 3.64 183.83 3.64L183.83 3.64L183.12 3.64L183.11 3.08L185.22 3.08L188.41 10.55L191.55 3.08L193.79 3.08L193.79 3.64L193.31 3.64L193.31 3.64Q192.86 3.64 192.74 3.71L192.74 3.71L192.74 3.71Q192.58 3.79 192.58 4.08L192.58 4.08L192.58 11.22L192.58 11.22Q192.58 11.68 192.69 11.77L192.69 11.77L192.69 11.77Q192.81 11.87 193.44 11.87L193.44 11.87L193.72 11.87L193.73 12.41L190.33 12.41L190.31 11.87L190.59 11.87L190.59 11.87Q191.21 11.87 191.32 11.77L191.32 11.77L191.32 11.77Q191.45 11.66 191.45 11.25L191.45 11.25L191.45 4.83L189.29 9.91L188.44 12.02L188.44 12.02Q188.30 12.37 188.26 12.44L188.26 12.44L188.26 12.44Q188.21 12.51 188.15 12.51L188.15 12.51L188.15 12.51Q188.05 12.51 187.60 11.52L187.60 11.52L184.79 5.01L184.73 11.39L184.73 11.39Q184.73 11.74 184.93 11.80L184.93 11.80L184.93 11.80Q185.17 11.87 186.13 11.87L186.13 11.87L186.13 12.41ZM201.47 12.41L201.46 11.87L201.63 11.87L201.63 11.87Q202.02 11.87 202.15 11.73L202.15 11.73L202.15 11.73Q202.27 11.57 202.60 10.83L202.60 10.83L203.51 8.82L204.09 7.53L204.09 7.53Q204.35 6.97 204.39 6.86L204.39 6.86L204.39 6.86Q204.46 6.70 204.51 6.60L204.51 6.60L204.51 6.60Q204.57 6.51 204.58 6.45L204.58 6.45L204.67 6.21L206.10 2.74L206.40 2.74L206.40 2.74Q207.25 4.98 209.44 10.25L209.44 10.25L209.44 10.25Q209.89 11.34 210.08 11.64L210.08 11.64L210.08 11.64Q210.22 11.87 210.66 11.87L210.66 11.87L210.87 11.87L210.85 12.41L207.66 12.41L207.68 11.87L208.09 11.87L208.09 11.87Q208.71 11.87 208.71 11.70L208.71 11.70L208.71 11.70Q208.71 11.63 208.57 11.27L208.57 11.27L207.53 8.72L204.29 8.72L203.18 11.18L203.18 11.18Q203.04 11.50 203.04 11.63L203.04 11.63L203.04 11.63Q203.04 11.79 203.14 11.83L203.14 11.83L203.14 11.83Q203.23 11.87 203.62 11.87L203.62 11.87L204.19 11.87L204.19 12.41L201.47 12.41ZM205.97 4.79L204.55 8.10L207.29 8.10L205.97 4.79ZM218.88 5.35L218.38 5.33L218.38 5.33Q218.50 4.17 218.59 3.08L218.59 3.08L226.67 3.08L226.67 3.08Q226.58 4.13 226.56 4.53L226.56 4.53L226.56 4.53Q226.52 5.26 226.50 5.32L226.50 5.32L226.00 5.30L226.00 5.30Q226.08 4.34 226.08 4.16L226.08 4.16L226.08 4.16Q226.08 3.88 225.93 3.79L225.93 3.79L225.93 3.79Q225.76 3.69 225.36 3.69L225.36 3.69L223.75 3.69L223.75 3.69Q223.25 3.69 223.13 3.79L223.13 3.79L223.13 3.79Q223.03 3.87 223.02 4.36L223.02 4.36L223.02 11.22L223.02 11.22Q223.02 11.66 223.17 11.76L223.17 11.76L223.17 11.76Q223.32 11.87 223.84 11.87L223.84 11.87L224.40 11.87L224.41 12.41L220.72 12.40L220.72 11.87L220.94 11.87L220.94 11.87Q221.61 11.87 221.75 11.79L221.75 11.79L221.75 11.79Q221.89 11.70 221.89 11.28L221.89 11.28L221.89 4.48L221.89 4.48Q221.89 3.92 221.80 3.80L221.80 3.80L221.80 3.80Q221.70 3.69 221.27 3.69L221.27 3.69L219.80 3.69L219.80 3.69Q219.62 3.69 219.55 3.71L219.55 3.71L219.55 3.71Q219.48 3.72 219.37 3.72L219.37 3.72L219.37 3.72Q219.34 3.72 219.23 3.79L219.23 3.79L219.23 3.79Q219.15 3.84 219.12 3.86L219.12 3.86L219.12 3.86Q219.09 3.88 219.05 3.99L219.05 3.99L219.05 3.99Q219.02 4.05 219.00 4.14L219.00 4.14L219.00 4.14Q218.97 4.21 218.95 4.36L218.95 4.36L218.95 4.36Q218.92 4.59 218.92 4.61L218.92 4.61L218.92 4.61Q218.92 4.80 218.91 4.95L218.91 4.95L218.91 4.95Q218.91 5.02 218.90 5.15L218.90 5.15L218.90 5.15Q218.89 5.29 218.88 5.35L218.88 5.35ZM234.77 3.64L234.40 3.64L234.40 3.08L237.89 3.08L237.89 3.64L237.53 3.64L237.53 3.64Q237.02 3.64 236.87 3.75L236.87 3.75L236.87 3.75Q236.74 3.84 236.73 4.25L236.73 4.25L236.73 6.91L241.28 6.91L241.28 4.14L241.28 4.14Q241.28 3.77 241.19 3.71L241.19 3.71L241.19 3.71Q241.08 3.64 240.55 3.64L240.55 3.64L239.96 3.64L239.95 3.08L243.50 3.08L243.50 3.64L243.11 3.64L243.11 3.64Q242.63 3.64 242.53 3.74L242.53 3.74L242.53 3.74Q242.42 3.83 242.42 4.22L242.42 4.22L242.42 11.29L242.42 11.29Q242.42 11.67 242.55 11.77L242.55 11.77L242.55 11.77Q242.71 11.87 243.26 11.87L243.26 11.87L243.73 11.87L243.71 12.41L240.23 12.41L240.21 11.87L240.63 11.87L240.63 11.87Q241.09 11.87 241.19 11.77L241.19 11.77L241.19 11.77Q241.28 11.67 241.28 11.25L241.28 11.25L241.28 7.58L236.73 7.58L236.73 11.25L236.73 11.25Q236.73 11.67 236.88 11.77L236.88 11.77L236.88 11.77Q237.04 11.87 237.74 11.87L237.74 11.87L238.14 11.87L238.12 12.41L234.53 12.41L234.52 11.87L234.88 11.87L234.88 11.87Q235.43 11.87 235.50 11.80L235.50 11.80L235.50 11.80Q235.59 11.70 235.59 11.25L235.59 11.25L235.59 4.09L235.59 4.09Q235.59 3.76 235.46 3.71L235.46 3.71L235.46 3.71Q235.29 3.64 234.77 3.64L234.77 3.64ZM251.48 3.64L251.47 3.08L258.68 3.08L258.68 3.08Q258.69 4.14 258.75 5.28L258.75 5.28L258.20 5.30L258.20 5.30Q258.19 4.66 258.13 4.25L258.13 4.25L258.13 4.25Q258.09 3.89 258.04 3.80L258.04 3.80L258.04 3.80Q257.98 3.71 257.87 3.69L257.87 3.69L257.87 3.69Q257.77 3.68 257.18 3.68L257.18 3.68L254.80 3.68L254.80 3.68Q254.26 3.68 254.11 3.77L254.11 3.77L254.11 3.77Q253.99 3.86 253.99 4.33L253.99 4.33L253.99 6.28L253.99 6.28Q253.99 6.69 254.04 6.76L254.04 6.76L254.04 6.76Q254.11 6.84 254.45 6.84L254.45 6.84L256.57 6.84L256.57 6.84Q256.93 6.84 257.01 6.73L257.01 6.73L257.01 6.73Q257.09 6.63 257.10 6.14L257.10 6.14L257.10 5.61L257.61 5.63L257.61 8.97L257.10 8.97L257.10 8.24L257.10 8.24Q257.10 7.66 257.02 7.57L257.02 7.57L257.02 7.57Q256.94 7.46 256.59 7.46L256.59 7.46L254.50 7.46L254.50 7.46Q254.16 7.46 254.07 7.54L254.07 7.54L254.07 7.54Q253.99 7.63 253.99 7.89L253.99 7.89L253.99 11.20L253.99 11.20Q253.99 11.57 254.07 11.67L254.07 11.67L254.07 11.67Q254.16 11.77 254.43 11.77L254.43 11.77L254.43 11.77Q257.35 11.75 257.88 11.69L257.88 11.69L257.88 11.69Q258.40 11.63 258.48 11.38L258.48 11.38L258.49 11.36L258.49 11.35L258.72 10.17L259.20 10.25L258.85 12.41L251.75 12.41L251.75 11.87L252.12 11.87L252.12 11.87Q252.68 11.87 252.76 11.80L252.76 11.80L252.76 11.80Q252.85 11.72 252.85 11.33L252.85 11.33L252.85 4.24L252.85 4.24Q252.85 3.82 252.70 3.73L252.70 3.73L252.70 3.73Q252.53 3.64 251.88 3.64L251.88 3.64L251.48 3.64ZM270.24 12.41L267.22 12.41L267.22 11.87L267.35 11.87L267.35 11.87Q267.94 11.87 268.06 11.77L268.06 11.77L268.06 11.77Q268.18 11.68 268.19 11.21L268.19 11.21L268.32 4.38L268.32 4.38Q268.32 4.35 268.33 4.28L268.33 4.28L268.33 4.28Q268.34 4.21 268.34 4.17L268.34 4.17L268.34 4.01L268.34 4.01Q268.34 3.76 268.26 3.71L268.26 3.71L268.26 3.71Q268.17 3.64 267.94 3.64L267.94 3.64L267.23 3.64L267.22 3.08L269.33 3.08L272.52 10.55L275.66 3.08L277.89 3.08L277.89 3.64L277.42 3.64L277.42 3.64Q276.97 3.64 276.85 3.71L276.85 3.71L276.85 3.71Q276.69 3.79 276.69 4.08L276.69 4.08L276.69 11.22L276.69 11.22Q276.69 11.68 276.80 11.77L276.80 11.77L276.80 11.77Q276.92 11.87 277.55 11.87L277.55 11.87L277.83 11.87L277.84 12.41L274.44 12.41L274.42 11.87L274.70 11.87L274.70 11.87Q275.32 11.87 275.43 11.77L275.43 11.77L275.43 11.77Q275.56 11.66 275.56 11.25L275.56 11.25L275.56 4.83L273.40 9.91L272.55 12.02L272.55 12.02Q272.41 12.37 272.37 12.44L272.37 12.44L272.37 12.44Q272.32 12.51 272.25 12.51L272.25 12.51L272.25 12.51Q272.16 12.51 271.71 11.52L271.71 11.52L268.90 5.01L268.84 11.39L268.84 11.39Q268.84 11.74 269.04 11.80L269.04 11.80L269.04 11.80Q269.27 11.87 270.24 11.87L270.24 11.87L270.24 12.41ZM285.58 12.41L285.56 11.87L285.74 11.87L285.74 11.87Q286.13 11.87 286.25 11.73L286.25 11.73L286.25 11.73Q286.38 11.57 286.71 10.83L286.71 10.83L287.62 8.82L288.20 7.53L288.20 7.53Q288.46 6.97 288.50 6.86L288.50 6.86L288.50 6.86Q288.57 6.70 288.62 6.60L288.62 6.60L288.62 6.60Q288.67 6.51 288.69 6.45L288.69 6.45L288.78 6.21L290.21 2.74L290.51 2.74L290.51 2.74Q291.36 4.98 293.55 10.25L293.55 10.25L293.55 10.25Q294 11.34 294.19 11.64L294.19 11.64L294.19 11.64Q294.33 11.87 294.77 11.87L294.77 11.87L294.98 11.87L294.96 12.41L291.77 12.41L291.79 11.87L292.20 11.87L292.20 11.87Q292.82 11.87 292.82 11.70L292.82 11.70L292.82 11.70Q292.82 11.63 292.68 11.27L292.68 11.27L291.64 8.72L288.39 8.72L287.29 11.18L287.29 11.18Q287.15 11.50 287.15 11.63L287.15 11.63L287.15 11.63Q287.15 11.79 287.25 11.83L287.25 11.83L287.25 11.83Q287.34 11.87 287.72 11.87L287.72 11.87L288.30 11.87L288.30 12.41L285.58 12.41ZM290.08 4.79L288.66 8.10L291.40 8.10L290.08 4.79ZM302.99 5.35L302.49 5.33L302.49 5.33Q302.61 4.17 302.70 3.08L302.70 3.08L310.78 3.08L310.78 3.08Q310.69 4.13 310.67 4.53L310.67 4.53L310.67 4.53Q310.63 5.26 310.60 5.32L310.60 5.32L310.11 5.30L310.11 5.30Q310.19 4.34 310.19 4.16L310.19 4.16L310.19 4.16Q310.19 3.88 310.04 3.79L310.04 3.79L310.04 3.79Q309.87 3.69 309.47 3.69L309.47 3.69L307.86 3.69L307.86 3.69Q307.36 3.69 307.23 3.79L307.23 3.79L307.23 3.79Q307.14 3.87 307.13 4.36L307.13 4.36L307.13 11.22L307.13 11.22Q307.13 11.66 307.28 11.76L307.28 11.76L307.28 11.76Q307.43 11.87 307.95 11.87L307.95 11.87L308.51 11.87L308.52 12.41L304.83 12.40L304.83 11.87L305.05 11.87L305.05 11.87Q305.72 11.87 305.86 11.79L305.86 11.79L305.86 11.79Q306.00 11.70 306.00 11.28L306.00 11.28L306.00 4.48L306.00 4.48Q306.00 3.92 305.90 3.80L305.90 3.80L305.90 3.80Q305.81 3.69 305.38 3.69L305.38 3.69L303.91 3.69L303.91 3.69Q303.73 3.69 303.66 3.71L303.66 3.71L303.66 3.71Q303.59 3.72 303.48 3.72L303.48 3.72L303.48 3.72Q303.45 3.72 303.34 3.79L303.34 3.79L303.34 3.79Q303.26 3.84 303.23 3.86L303.23 3.86L303.23 3.86Q303.20 3.88 303.16 3.99L303.16 3.99L303.16 3.99Q303.13 4.05 303.11 4.14L303.11 4.14L303.11 4.14Q303.08 4.21 303.06 4.36L303.06 4.36L303.06 4.36Q303.03 4.59 303.03 4.61L303.03 4.61L303.03 4.61Q303.03 4.80 303.02 4.95L303.02 4.95L303.02 4.95Q303.02 5.02 303.01 5.15L303.01 5.15L303.01 5.15Q303.00 5.29 302.99 5.35L302.99 5.35ZM319.10 3.64L318.51 3.64L318.53 3.08L322.04 3.08L322.04 3.64L321.81 3.64L321.81 3.64Q321.26 3.64 321.09 3.73L321.09 3.73L321.09 3.73Q320.95 3.81 320.95 4.28L320.95 4.28L320.95 11.22L320.95 11.22Q320.95 11.68 321.06 11.77L321.06 11.77L321.06 11.77Q321.17 11.87 321.71 11.87L321.71 11.87L322.25 11.87L322.27 12.41L318.68 12.41L318.67 11.87L319.03 11.87L319.03 11.87Q319.59 11.87 319.71 11.77L319.71 11.77L319.71 11.77Q319.82 11.67 319.82 11.25L319.82 11.25L319.82 4.14L319.82 4.14Q319.82 3.77 319.72 3.71L319.72 3.71L319.72 3.71Q319.61 3.64 319.10 3.64L319.10 3.64ZM330.39 8.02L330.39 8.02L330.39 8.02Q330.39 6.86 330.86 5.83L330.86 5.83L330.86 5.83Q331.32 4.85 332.08 4.27L332.08 4.27L332.08 4.27Q332.82 3.69 333.72 3.37L333.72 3.37L333.72 3.37Q334.61 3.05 335.45 3.05L335.45 3.05L335.45 3.05Q336.32 3.05 336.99 3.16L336.99 3.16L336.99 3.16Q337.62 3.26 337.91 3.37L337.91 3.37L337.91 3.37Q338.22 3.48 338.26 3.48L338.26 3.48L338.26 3.48Q338.43 3.48 338.45 3.41L338.45 3.41L338.45 3.41Q338.47 3.33 338.47 3.09L338.47 3.09L338.47 2.97L339.01 2.97L339.01 2.97Q339.05 4.30 339.18 5.64L339.18 5.64L338.67 5.65L338.67 5.65Q338.65 5.40 338.63 5.26L338.63 5.26L338.63 5.26Q338.63 5.20 338.63 5.13L338.63 5.13L338.63 5.13Q338.62 5.07 338.61 5.02L338.61 5.02L338.61 5.02Q338.60 4.98 338.60 4.95L338.60 4.95L338.60 4.95Q338.58 4.84 338.58 4.74L338.58 4.74L338.58 4.74Q338.58 4.68 338.54 4.59L338.54 4.59L338.54 4.59Q338.54 4.57 338.51 4.55L338.51 4.55L338.51 4.55Q338.47 4.52 338.47 4.50L338.47 4.50L338.47 4.50Q338.45 4.44 338.38 4.41L338.38 4.41L338.38 4.41Q338.34 4.38 338.31 4.37L338.31 4.37L338.31 4.37Q338.28 4.36 338.26 4.35L338.26 4.35L338.26 4.35Q338.24 4.35 338.22 4.33L338.22 4.33L338.22 4.33Q338.19 4.31 338.15 4.29L338.15 4.29L338.15 4.29Q338.11 4.27 338.07 4.25L338.07 4.25L338.07 4.25Q337.85 4.16 337.82 4.14L337.82 4.14L337.82 4.14Q337.47 3.96 336.83 3.83L336.83 3.83L336.83 3.83Q336.16 3.71 335.49 3.71L335.49 3.71L335.49 3.71Q333.77 3.71 332.68 4.84L332.68 4.84L332.68 4.84Q331.57 5.99 331.58 7.62L331.58 7.62L331.58 7.62Q331.58 9.35 332.79 10.69L332.79 10.69L332.79 10.69Q334.00 12.02 335.82 12.02L335.82 12.02L335.82 12.02Q336.82 12.02 337.76 11.49L337.76 11.49L337.76 11.49Q338.71 10.94 338.74 10.58L338.74 10.58L338.78 9.41L339.27 9.41L339.19 11.45L339.19 11.45Q339.12 11.49 338.99 11.57L338.99 11.57L338.99 11.57Q338.94 11.60 338.47 11.85L338.47 11.85L338.47 11.85Q338.10 12.05 337.65 12.23L337.65 12.23L337.65 12.23Q337.29 12.39 336.64 12.51L336.64 12.51L336.64 12.51Q336.03 12.63 335.47 12.64L335.47 12.64L335.47 12.64Q333.09 12.64 331.73 11.39L331.73 11.39L331.73 11.39Q330.39 10.14 330.39 8.02ZM347.28 10.04L347.28 10.04L347.77 9.98L347.96 10.85L347.96 10.85Q348.07 11.33 348.13 11.41L348.13 11.41L348.13 11.41Q348.20 11.49 348.61 11.64L348.61 11.64L348.61 11.64Q349.45 11.95 350.35 11.95L350.35 11.95L350.35 11.95Q351.13 11.95 351.67 11.49L351.67 11.49L351.67 11.49Q352.21 11.04 352.21 10.26L352.21 10.26L352.21 10.26Q352.21 9.65 351.75 9.21L351.75 9.21L351.75 9.21Q351.27 8.76 350.42 8.30L350.42 8.30L349.84 7.98L349.84 7.98Q349.10 7.55 348.87 7.36L348.87 7.36L348.87 7.36Q348.50 7.08 348.19 6.59L348.19 6.59L348.19 6.59Q347.88 6.10 347.88 5.46L347.88 5.46L347.88 5.46Q347.88 4.39 348.72 3.68L348.72 3.68L348.72 3.68Q349.56 2.97 350.67 2.97L350.67 2.97L350.67 2.97Q350.95 2.97 351.30 3.04L351.30 3.04L351.30 3.04Q351.50 3.08 351.83 3.17L351.83 3.17L352.07 3.25L352.07 3.25Q352.17 3.25 352.21 3.16L352.21 3.16L352.21 3.16Q352.26 3.05 352.26 2.98L352.26 2.98L352.28 2.88L352.75 2.85L352.97 5.41L352.46 5.43L352.34 4.18L352.34 4.18Q351.59 3.62 350.43 3.62L350.43 3.62L350.43 3.62Q349.79 3.62 349.28 4.05L349.28 4.05L349.28 4.05Q348.80 4.47 348.80 5.12L348.80 5.12L348.80 5.12Q348.80 5.72 349.25 6.17L349.25 6.17L349.25 6.17Q349.69 6.60 350.55 7.08L350.55 7.08L351.33 7.50L351.33 7.50Q352.28 8.03 352.81 8.59L352.81 8.59L352.81 8.59Q353.34 9.15 353.34 9.92L353.34 9.92L353.34 9.92Q353.34 10.99 352.49 11.76L352.49 11.76L352.49 11.76Q351.62 12.54 350.16 12.54L350.16 12.54L350.16 12.54Q349.60 12.54 349.10 12.41L349.10 12.41L349.10 12.41Q348.60 12.29 348.54 12.29L348.54 12.29L348.54 12.29Q348.29 12.29 348.29 12.58L348.29 12.58L348.30 12.76L347.83 12.80L347.83 12.80Q347.76 12.41 347.28 10.04ZM371.48 3.64L371.24 3.64L371.24 3.08L374.34 3.08L374.33 3.64L374.02 3.64L374.02 3.64Q373.19 3.64 373.19 3.94L373.19 3.94L373.19 3.94Q373.19 4.03 373.23 4.09L373.23 4.09L375.65 10.76L377.96 4.85L377.86 4.57L377.86 4.57Q377.83 4.52 377.81 4.44L377.81 4.44L377.81 4.44Q377.79 4.36 377.77 4.31L377.77 4.31L377.77 4.31Q377.75 4.25 377.73 4.22L377.73 4.22L377.73 4.22Q377.71 4.16 377.61 3.96L377.61 3.96L377.61 3.96Q377.53 3.80 377.41 3.71L377.41 3.71L377.41 3.71Q377.33 3.64 377.16 3.64L377.16 3.64L376.48 3.64L376.48 3.08L379.80 3.08L379.80 3.64L379.07 3.64L379.07 3.64Q378.83 3.64 378.77 3.68L378.77 3.68L378.77 3.68Q378.70 3.72 378.70 3.86L378.70 3.86L378.70 3.86Q378.70 4.00 378.95 4.76L378.95 4.76L380.99 10.72L383.49 4.18L383.49 4.18Q383.54 4.01 383.54 3.94L383.54 3.94L383.54 3.94Q383.54 3.75 383.37 3.69L383.37 3.69L383.37 3.69Q383.22 3.64 382.86 3.64L382.86 3.64L382.49 3.64L382.49 3.08L384.89 3.08L384.90 3.64L384.73 3.64L384.73 3.64Q384.38 3.64 384.29 3.77L384.29 3.77L384.29 3.77Q384.17 3.96 383.92 4.60L383.92 4.60L380.83 12.64L380.59 12.64L378.21 5.64L375.49 12.63L375.27 12.63L372.30 4.52L372.30 4.52Q372.09 3.96 371.92 3.79L371.92 3.79L371.92 3.79Q371.77 3.63 371.48 3.64L371.48 3.64ZM393.22 3.64L392.64 3.64L392.65 3.08L396.16 3.08L396.16 3.64L395.93 3.64L395.93 3.64Q395.38 3.64 395.21 3.73L395.21 3.73L395.21 3.73Q395.08 3.81 395.08 4.28L395.08 4.28L395.08 11.22L395.08 11.22Q395.08 11.68 395.19 11.77L395.19 11.77L395.19 11.77Q395.29 11.87 395.83 11.87L395.83 11.87L396.38 11.87L396.39 12.41L392.81 12.41L392.79 11.87L393.16 11.87L393.16 11.87Q393.72 11.87 393.83 11.77L393.83 11.77L393.83 11.77Q393.94 11.67 393.94 11.25L393.94 11.25L393.94 4.14L393.94 4.14Q393.94 3.77 393.84 3.71L393.84 3.71L393.84 3.71Q393.73 3.64 393.22 3.64L393.22 3.64ZM404.41 5.35L403.91 5.33L403.91 5.33Q404.03 4.17 404.11 3.08L404.11 3.08L412.19 3.08L412.19 3.08Q412.11 4.13 412.08 4.53L412.08 4.53L412.08 4.53Q412.04 5.26 412.02 5.32L412.02 5.32L411.52 5.30L411.52 5.30Q411.61 4.34 411.61 4.16L411.61 4.16L411.61 4.16Q411.61 3.88 411.46 3.79L411.46 3.79L411.46 3.79Q411.29 3.69 410.89 3.69L410.89 3.69L409.28 3.69L409.28 3.69Q408.78 3.69 408.65 3.79L408.65 3.79L408.65 3.79Q408.56 3.87 408.55 4.36L408.55 4.36L408.55 11.22L408.55 11.22Q408.55 11.66 408.69 11.76L408.69 11.76L408.69 11.76Q408.85 11.87 409.36 11.87L409.36 11.87L409.92 11.87L409.94 12.41L406.25 12.40L406.25 11.87L406.46 11.87L406.46 11.87Q407.13 11.87 407.28 11.79L407.28 11.79L407.28 11.79Q407.42 11.70 407.42 11.28L407.42 11.28L407.42 4.48L407.42 4.48Q407.42 3.92 407.32 3.80L407.32 3.80L407.32 3.80Q407.22 3.69 406.80 3.69L406.80 3.69L405.33 3.69L405.33 3.69Q405.15 3.69 405.08 3.71L405.08 3.71L405.08 3.71Q405.01 3.72 404.90 3.72L404.90 3.72L404.90 3.72Q404.87 3.72 404.76 3.79L404.76 3.79L404.76 3.79Q404.67 3.84 404.65 3.86L404.65 3.86L404.65 3.86Q404.62 3.88 404.58 3.99L404.58 3.99L404.58 3.99Q404.55 4.05 404.52 4.14L404.52 4.14L404.52 4.14Q404.50 4.21 404.48 4.36L404.48 4.36L404.48 4.36Q404.45 4.59 404.45 4.61L404.45 4.61L404.45 4.61Q404.45 4.80 404.43 4.95L404.43 4.95L404.43 4.95Q404.43 5.02 404.43 5.15L404.43 5.15L404.43 5.15Q404.42 5.29 404.41 5.35L404.41 5.35ZM420.30 3.64L419.93 3.64L419.93 3.08L423.42 3.08L423.42 3.64L423.06 3.64L423.06 3.64Q422.55 3.64 422.40 3.75L422.40 3.75L422.40 3.75Q422.26 3.84 422.26 4.25L422.26 4.25L422.26 6.91L426.81 6.91L426.81 4.14L426.81 4.14Q426.81 3.77 426.71 3.71L426.71 3.71L426.71 3.71Q426.60 3.64 426.08 3.64L426.08 3.64L425.49 3.64L425.48 3.08L429.03 3.08L429.03 3.64L428.64 3.64L428.64 3.64Q428.16 3.64 428.05 3.74L428.05 3.74L428.05 3.74Q427.94 3.83 427.94 4.22L427.94 4.22L427.94 11.29L427.94 11.29Q427.94 11.67 428.08 11.77L428.08 11.77L428.08 11.77Q428.24 11.87 428.78 11.87L428.78 11.87L429.26 11.87L429.24 12.41L425.76 12.41L425.74 11.87L426.15 11.87L426.15 11.87Q426.62 11.87 426.71 11.77L426.71 11.77L426.71 11.77Q426.81 11.67 426.81 11.25L426.81 11.25L426.81 7.58L422.26 7.58L422.26 11.25L422.26 11.25Q422.26 11.67 422.41 11.77L422.41 11.77L422.41 11.77Q422.56 11.87 423.27 11.87L423.27 11.87L423.67 11.87L423.64 12.41L420.06 12.41L420.05 11.87L420.41 11.87L420.41 11.87Q420.96 11.87 421.03 11.80L421.03 11.80L421.03 11.80Q421.12 11.70 421.12 11.25L421.12 11.25L421.12 4.09L421.12 4.09Q421.12 3.76 420.98 3.71L420.98 3.71L420.98 3.71Q420.81 3.64 420.30 3.64L420.30 3.64ZM446.84 5.35L446.35 5.33L446.35 5.33Q446.47 4.17 446.55 3.08L446.55 3.08L454.63 3.08L454.63 3.08Q454.55 4.13 454.52 4.53L454.52 4.53L454.52 4.53Q454.48 5.26 454.46 5.32L454.46 5.32L453.96 5.30L453.96 5.30Q454.04 4.34 454.04 4.16L454.04 4.16L454.04 4.16Q454.04 3.88 453.90 3.79L453.90 3.79L453.90 3.79Q453.73 3.69 453.33 3.69L453.33 3.69L451.72 3.69L451.72 3.69Q451.21 3.69 451.09 3.79L451.09 3.79L451.09 3.79Q450.99 3.87 450.99 4.36L450.99 4.36L450.99 11.22L450.99 11.22Q450.99 11.66 451.13 11.76L451.13 11.76L451.13 11.76Q451.29 11.87 451.80 11.87L451.80 11.87L452.36 11.87L452.38 12.41L448.68 12.40L448.68 11.87L448.90 11.87L448.90 11.87Q449.57 11.87 449.72 11.79L449.72 11.79L449.72 11.79Q449.86 11.70 449.86 11.28L449.86 11.28L449.86 4.48L449.86 4.48Q449.86 3.92 449.76 3.80L449.76 3.80L449.76 3.80Q449.66 3.69 449.24 3.69L449.24 3.69L447.77 3.69L447.77 3.69Q447.58 3.69 447.51 3.71L447.51 3.71L447.51 3.71Q447.45 3.72 447.34 3.72L447.34 3.72L447.34 3.72Q447.31 3.72 447.19 3.79L447.19 3.79L447.19 3.79Q447.11 3.84 447.08 3.86L447.08 3.86L447.08 3.86Q447.06 3.88 447.02 3.99L447.02 3.99L447.02 3.99Q446.99 4.05 446.96 4.14L446.96 4.14L446.96 4.14Q446.93 4.21 446.91 4.36L446.91 4.36L446.91 4.36Q446.89 4.59 446.89 4.61L446.89 4.61L446.89 4.61Q446.89 4.80 446.87 4.95L446.87 4.95L446.87 4.95Q446.87 5.02 446.87 5.15L446.87 5.15L446.87 5.15Q446.86 5.29 446.84 5.35L446.84 5.35ZM462.74 3.64L462.37 3.64L462.37 3.08L465.86 3.08L465.86 3.64L465.49 3.64L465.49 3.64Q464.99 3.64 464.84 3.75L464.84 3.75L464.84 3.75Q464.70 3.84 464.69 4.25L464.69 4.25L464.69 6.91L469.25 6.91L469.25 4.14L469.25 4.14Q469.25 3.77 469.15 3.71L469.15 3.71L469.15 3.71Q469.04 3.64 468.51 3.64L468.51 3.64L467.93 3.64L467.91 3.08L471.47 3.08L471.47 3.64L471.08 3.64L471.08 3.64Q470.60 3.64 470.49 3.74L470.49 3.74L470.49 3.74Q470.38 3.83 470.38 4.22L470.38 4.22L470.38 11.29L470.38 11.29Q470.38 11.67 470.52 11.77L470.52 11.77L470.52 11.77Q470.67 11.87 471.22 11.87L471.22 11.87L471.69 11.87L471.68 12.41L468.19 12.41L468.18 11.87L468.59 11.87L468.59 11.87Q469.05 11.87 469.15 11.77L469.15 11.77L469.15 11.77Q469.25 11.67 469.25 11.25L469.25 11.25L469.25 7.58L464.69 7.58L464.69 11.25L464.69 11.25Q464.69 11.67 464.85 11.77L464.85 11.77L464.85 11.77Q465.00 11.87 465.71 11.87L465.71 11.87L466.11 11.87L466.08 12.41L462.50 12.41L462.49 11.87L462.85 11.87L462.85 11.87Q463.39 11.87 463.46 11.80L463.46 11.80L463.46 11.80Q463.56 11.70 463.56 11.25L463.56 11.25L463.56 4.09L463.56 4.09Q463.56 3.76 463.42 3.71L463.42 3.71L463.42 3.71Q463.25 3.64 462.74 3.64L462.74 3.64ZM479.45 3.64L479.43 3.08L486.64 3.08L486.64 3.08Q486.66 4.14 486.71 5.28L486.71 5.28L486.17 5.30L486.17 5.30Q486.15 4.66 486.10 4.25L486.10 4.25L486.10 4.25Q486.06 3.89 486.00 3.80L486.00 3.80L486.00 3.80Q485.95 3.71 485.83 3.69L485.83 3.69L485.83 3.69Q485.73 3.68 485.15 3.68L485.15 3.68L482.77 3.68L482.77 3.68Q482.22 3.68 482.08 3.77L482.08 3.77L482.08 3.77Q481.95 3.86 481.95 4.33L481.95 4.33L481.95 6.28L481.95 6.28Q481.95 6.69 482.01 6.76L482.01 6.76L482.01 6.76Q482.08 6.84 482.42 6.84L482.42 6.84L484.53 6.84L484.53 6.84Q484.89 6.84 484.98 6.73L484.98 6.73L484.98 6.73Q485.06 6.63 485.06 6.14L485.06 6.14L485.06 5.61L485.58 5.63L485.58 8.97L485.06 8.97L485.06 8.24L485.06 8.24Q485.06 7.66 484.99 7.57L484.99 7.57L484.99 7.57Q484.91 7.46 484.56 7.46L484.56 7.46L482.46 7.46L482.46 7.46Q482.13 7.46 482.04 7.54L482.04 7.54L482.04 7.54Q481.95 7.63 481.95 7.89L481.95 7.89L481.95 11.20L481.95 11.20Q481.95 11.57 482.04 11.67L482.04 11.67L482.04 11.67Q482.13 11.77 482.40 11.77L482.40 11.77L482.40 11.77Q485.32 11.75 485.84 11.69L485.84 11.69L485.84 11.69Q486.36 11.63 486.45 11.38L486.45 11.38L486.45 11.36L486.46 11.35L486.68 10.17L487.16 10.25L486.81 12.41L479.71 12.41L479.71 11.87L480.08 11.87L480.08 11.87Q480.64 11.87 480.72 11.80L480.72 11.80L480.72 11.80Q480.82 11.72 480.82 11.33L480.82 11.33L480.82 4.24L480.82 4.24Q480.82 3.82 480.67 3.73L480.67 3.73L480.67 3.73Q480.50 3.64 479.84 3.64L479.84 3.64L479.45 3.64ZM508.33 12.41L504.61 12.41L504.61 11.87L505.05 11.87L505.05 11.87Q505.42 11.87 505.48 11.81L505.48 11.81L505.48 11.81Q505.54 11.74 505.55 11.46L505.55 11.46L505.55 4.14L505.55 4.14Q505.55 3.81 505.47 3.72L505.47 3.72L505.47 3.72Q505.38 3.64 505.02 3.64L505.02 3.64L504.65 3.64L504.66 3.08L507.55 3.08L507.55 3.08Q508.70 3.08 509.35 3.19L509.35 3.19L509.35 3.19Q509.95 3.28 510.42 3.68L510.42 3.68L510.42 3.68Q511.61 4.64 511.61 6.19L511.61 6.19L511.61 6.19Q511.61 7.23 510.84 7.98L510.84 7.98L510.84 7.98Q510.06 8.74 508.66 8.73L508.66 8.73L508.66 8.73Q508.48 8.73 508.07 8.70L508.07 8.70L508.07 8.70Q507.96 8.69 507.53 8.62L507.53 8.62L507.53 8.62Q507.20 8.55 507.10 8.54L507.10 8.54L507.10 8.54Q506.81 8.47 506.80 8.46L506.80 8.46L506.68 8.44L506.68 11.46L506.68 11.46Q506.68 11.74 506.81 11.81L506.81 11.81L506.81 11.81Q506.92 11.87 507.64 11.87L507.64 11.87L508.33 11.87L508.33 12.41ZM506.68 4.28L506.68 8.02L506.68 8.02Q507.03 8.29 508.00 8.29L508.00 8.29L508.00 8.29Q509.13 8.29 509.71 7.75L509.71 7.75L509.71 7.75Q510.30 7.21 510.30 6.16L510.30 6.16L510.30 6.16Q510.30 4.98 509.39 4.31L509.39 4.31L509.39 4.31Q508.49 3.64 507.10 3.64L507.10 3.64L507.10 3.64Q506.85 3.64 506.77 3.75L506.77 3.75L506.77 3.75Q506.69 3.84 506.68 4.28L506.68 4.28ZM519.60 3.64L519.59 3.08L526.80 3.08L526.80 3.08Q526.81 4.14 526.87 5.28L526.87 5.28L526.32 5.30L526.32 5.30Q526.31 4.66 526.25 4.25L526.25 4.25L526.25 4.25Q526.21 3.89 526.16 3.80L526.16 3.80L526.16 3.80Q526.10 3.71 525.98 3.69L525.98 3.69L525.98 3.69Q525.89 3.68 525.30 3.68L525.30 3.68L522.92 3.68L522.92 3.68Q522.38 3.68 522.23 3.77L522.23 3.77L522.23 3.77Q522.11 3.86 522.11 4.33L522.11 4.33L522.11 6.28L522.11 6.28Q522.11 6.69 522.16 6.76L522.16 6.76L522.16 6.76Q522.23 6.84 522.57 6.84L522.57 6.84L524.69 6.84L524.69 6.84Q525.05 6.84 525.13 6.73L525.13 6.73L525.13 6.73Q525.21 6.63 525.22 6.14L525.22 6.14L525.22 5.61L525.73 5.63L525.73 8.97L525.22 8.97L525.22 8.24L525.22 8.24Q525.22 7.66 525.14 7.57L525.14 7.57L525.14 7.57Q525.06 7.46 524.71 7.46L524.71 7.46L522.61 7.46L522.61 7.46Q522.28 7.46 522.19 7.54L522.19 7.54L522.19 7.54Q522.11 7.63 522.11 7.89L522.11 7.89L522.11 11.20L522.11 11.20Q522.11 11.57 522.19 11.67L522.19 11.67L522.19 11.67Q522.28 11.77 522.55 11.77L522.55 11.77L522.55 11.77Q525.47 11.75 526.00 11.69L526.00 11.69L526.00 11.69Q526.52 11.63 526.60 11.38L526.60 11.38L526.61 11.36L526.61 11.35L526.84 10.17L527.32 10.25L526.97 12.41L519.87 12.41L519.87 11.87L520.24 11.87L520.24 11.87Q520.80 11.87 520.88 11.80L520.88 11.80L520.88 11.80Q520.97 11.72 520.97 11.33L520.97 11.33L520.97 4.24L520.97 4.24Q520.97 3.82 520.82 3.73L520.82 3.73L520.82 3.73Q520.65 3.64 520.00 3.64L520.00 3.64L519.60 3.64ZM535.58 7.83L535.58 7.83L535.58 7.83Q535.58 6.62 535.98 5.68L535.98 5.68L535.98 5.68Q536.40 4.72 537.09 4.12L537.09 4.12L537.09 4.12Q537.78 3.51 538.64 3.19L538.64 3.19L538.64 3.19Q539.48 2.88 540.43 2.88L540.43 2.88L540.43 2.88Q541.69 2.88 542.74 3.40L542.74 3.40L542.74 3.40Q543.82 3.93 544.53 5.07L544.53 5.07L544.53 5.07Q545.23 6.17 545.23 7.75L545.23 7.75L545.23 7.75Q545.23 8.70 544.93 9.54L544.93 9.54L544.93 9.54Q544.62 10.38 544.01 11.10L544.01 11.10L544.01 11.10Q543.41 11.81 542.47 12.22L542.47 12.22L542.47 12.22Q541.51 12.63 540.32 12.64L540.32 12.64L540.32 12.64Q539.18 12.64 538.25 12.23L538.25 12.23L538.25 12.23Q537.31 11.83 536.75 11.14L536.75 11.14L536.75 11.14Q536.18 10.45 535.88 9.60L535.88 9.60L535.88 9.60Q535.58 8.72 535.58 7.83ZM536.83 7.38L536.83 7.38L536.83 7.38Q536.83 8.52 537.26 9.60L537.26 9.60L537.26 9.60Q537.67 10.64 538.60 11.33L538.60 11.33L538.60 11.33Q539.51 12.03 540.70 12.04L540.70 12.04L540.70 12.04Q542.07 12.04 543.01 11.01L543.01 11.01L543.01 11.01Q543.96 9.97 543.96 8.10L543.96 8.10L543.96 8.10Q543.96 5.99 542.79 4.72L542.79 4.72L542.79 4.72Q541.65 3.46 540.13 3.45L540.13 3.45L540.13 3.45Q539.62 3.45 539.07 3.65L539.07 3.65L539.07 3.65Q538.53 3.85 538.02 4.25L538.02 4.25L538.02 4.25Q537.48 4.68 537.15 5.48L537.15 5.48L537.15 5.48Q536.83 6.27 536.83 7.38ZM557.07 12.41L553.35 12.41L553.35 11.87L553.79 11.87L553.79 11.87Q554.16 11.87 554.22 11.81L554.22 11.81L554.22 11.81Q554.29 11.74 554.29 11.46L554.29 11.46L554.29 4.14L554.29 4.14Q554.29 3.81 554.21 3.72L554.21 3.72L554.21 3.72Q554.12 3.64 553.76 3.64L553.76 3.64L553.39 3.64L553.40 3.08L556.29 3.08L556.29 3.08Q557.44 3.08 558.09 3.19L558.09 3.19L558.09 3.19Q558.69 3.28 559.16 3.68L559.16 3.68L559.16 3.68Q560.35 4.64 560.35 6.19L560.35 6.19L560.35 6.19Q560.35 7.23 559.58 7.98L559.58 7.98L559.58 7.98Q558.80 8.74 557.40 8.73L557.40 8.73L557.40 8.73Q557.22 8.73 556.81 8.70L556.81 8.70L556.81 8.70Q556.70 8.69 556.27 8.62L556.27 8.62L556.27 8.62Q555.94 8.55 555.84 8.54L555.84 8.54L555.84 8.54Q555.55 8.47 555.54 8.46L555.54 8.46L555.42 8.44L555.42 11.46L555.42 11.46Q555.42 11.74 555.55 11.81L555.55 11.81L555.55 11.81Q555.66 11.87 556.38 11.87L556.38 11.87L557.07 11.87L557.07 12.41ZM555.42 4.28L555.42 8.02L555.42 8.02Q555.77 8.29 556.74 8.29L556.74 8.29L556.74 8.29Q557.87 8.29 558.45 7.75L558.45 7.75L558.45 7.75Q559.04 7.21 559.04 6.16L559.04 6.16L559.04 6.16Q559.04 4.98 558.13 4.31L558.13 4.31L558.13 4.31Q557.23 3.64 555.84 3.64L555.84 3.64L555.84 3.64Q555.59 3.64 555.51 3.75L555.51 3.75L555.51 3.75Q555.43 3.84 555.42 4.28L555.42 4.28ZM568.82 3.64L568.33 3.64L568.34 3.08L571.93 3.08L571.93 3.64L571.29 3.64L571.29 3.64Q570.92 3.64 570.80 3.72L570.80 3.72L570.80 3.72Q570.69 3.80 570.69 4.16L570.69 4.16L570.69 11.22L570.69 11.22Q570.69 11.57 570.78 11.67L570.78 11.67L570.78 11.67Q570.86 11.77 571.16 11.77L571.16 11.77L571.16 11.77Q574.03 11.74 574.68 11.63L574.68 11.63L574.68 11.63Q574.90 11.61 574.98 11.39L574.98 11.39L574.98 11.39Q575.06 11.17 575.26 10.05L575.26 10.05L575.75 10.08L575.29 12.41L568.52 12.41L568.51 11.87L568.90 11.87L568.90 11.87Q569.41 11.87 569.47 11.80L569.47 11.80L569.47 11.80Q569.56 11.72 569.56 11.33L569.56 11.33L569.56 4.09L569.56 4.09Q569.56 3.80 569.41 3.72L569.41 3.72L569.41 3.72Q569.26 3.64 568.82 3.64L568.82 3.64ZM583.50 3.64L583.48 3.08L590.69 3.08L590.69 3.08Q590.71 4.14 590.76 5.28L590.76 5.28L590.21 5.30L590.21 5.30Q590.20 4.66 590.15 4.25L590.15 4.25L590.15 4.25Q590.11 3.89 590.05 3.80L590.05 3.80L590.05 3.80Q590.00 3.71 589.88 3.69L589.88 3.69L589.88 3.69Q589.78 3.68 589.20 3.68L589.20 3.68L586.82 3.68L586.82 3.68Q586.27 3.68 586.13 3.77L586.13 3.77L586.13 3.77Q586.00 3.86 586.00 4.33L586.00 4.33L586.00 6.28L586.00 6.28Q586.00 6.69 586.06 6.76L586.06 6.76L586.06 6.76Q586.13 6.84 586.47 6.84L586.47 6.84L588.58 6.84L588.58 6.84Q588.94 6.84 589.03 6.73L589.03 6.73L589.03 6.73Q589.11 6.63 589.11 6.14L589.11 6.14L589.11 5.61L589.63 5.63L589.63 8.97L589.11 8.97L589.11 8.24L589.11 8.24Q589.11 7.66 589.04 7.57L589.04 7.57L589.04 7.57Q588.96 7.46 588.61 7.46L588.61 7.46L586.51 7.46L586.51 7.46Q586.17 7.46 586.09 7.54L586.09 7.54L586.09 7.54Q586.00 7.63 586.00 7.89L586.00 7.89L586.00 11.20L586.00 11.20Q586.00 11.57 586.09 11.67L586.09 11.67L586.09 11.67Q586.17 11.77 586.45 11.77L586.45 11.77L586.45 11.77Q589.37 11.75 589.89 11.69L589.89 11.69L589.89 11.69Q590.41 11.63 590.50 11.38L590.50 11.38L590.50 11.36L590.51 11.35L590.73 10.17L591.21 10.25L590.86 12.41L583.76 12.41L583.76 11.87L584.13 11.87L584.13 11.87Q584.69 11.87 584.77 11.80L584.77 11.80L584.77 11.80Q584.87 11.72 584.87 11.33L584.87 11.33L584.87 4.24L584.87 4.24Q584.87 3.82 584.72 3.73L584.72 3.73L584.72 3.73Q584.55 3.64 583.89 3.64L583.89 3.64L583.50 3.64Z"></path></g></svg>